<svg width="278" height="225" viewBox="0 0 278 225" fill="none" xmlns="http://www.w3.org/2000/svg">
<path d="M30 34C30 20.7452 40.7452 10 54 10H248V191C248 204.255 237.255 215 224 215H30V34Z" fill="#8D9DCA" fill-opacity="0.3"/>
<path d="M54 68C54 63.5817 57.5817 60 62 60H214C218.418 60 222 63.5817 222 68V156C222 160.418 218.418 164 214 164H62C57.5817 164 54 160.418 54 156V68Z" fill="white"/>
<path d="M66 84C66 81.7909 67.7909 80 70 80H206C208.209 80 210 81.7909 210 84V102C210 104.209 208.209 106 206 106H70C67.7909 106 66 104.209 66 102V84Z" fill="#EBEFF6"/>
<mask id="mask0_84_17936" style="mask-type:alpha" maskUnits="userSpaceOnUse" x="74" y="81" width="24" height="24">
<rect x="74" y="81" width="24" height="24" fill="#D9D9D9"/>
</mask>
<g mask="url(#mask0_84_17936)">
<path d="M79.7998 100.7C79.3665 100.7 79.0081 100.558 78.7248 100.275C78.4415 99.9917 78.2998 99.6334 78.2998 99.2V86.8C78.2998 86.3667 78.4415 86.0084 78.7248 85.725C79.0081 85.4417 79.3665 85.3 79.7998 85.3H88.8248C89.0248 85.3 89.2206 85.3417 89.4123 85.425C89.604 85.5084 89.7665 85.6167 89.8998 85.75L93.2498 89.1C93.3831 89.2334 93.4915 89.3959 93.5748 89.5875C93.6581 89.7792 93.6998 89.975 93.6998 90.175V99.2C93.6998 99.6334 93.5581 99.9917 93.2748 100.275C92.9915 100.558 92.6331 100.7 92.1998 100.7H79.7998ZM79.7998 100H92.1998C92.4331 100 92.6248 99.925 92.7748 99.775C92.9248 99.625 92.9998 99.4334 92.9998 99.2V90H89.7498C89.5331 90 89.354 89.9292 89.2123 89.7875C89.0706 89.6459 88.9998 89.4667 88.9998 89.25V86H79.7998C79.5665 86 79.3748 86.075 79.2248 86.225C79.0748 86.375 78.9998 86.5667 78.9998 86.8V99.2C78.9998 99.4334 79.0748 99.625 79.2248 99.775C79.3748 99.925 79.5665 100 79.7998 100ZM89.9998 96.7C90.0998 96.7 90.1831 96.6667 90.2498 96.6C90.3165 96.5334 90.3498 96.45 90.3498 96.35C90.3498 96.25 90.3165 96.1667 90.2498 96.1C90.1831 96.0334 90.0998 96 89.9998 96H81.9998C81.8998 96 81.8165 96.0334 81.7498 96.1C81.6831 96.1667 81.6498 96.25 81.6498 96.35C81.6498 96.45 81.6831 96.5334 81.7498 96.6C81.8165 96.6667 81.8998 96.7 81.9998 96.7H89.9998ZM85.6498 90C85.7498 90 85.8331 89.9667 85.8998 89.9C85.9665 89.8334 85.9998 89.75 85.9998 89.65C85.9998 89.55 85.9665 89.4667 85.8998 89.4C85.8331 89.3334 85.7498 89.3 85.6498 89.3H81.9998C81.8998 89.3 81.8165 89.3334 81.7498 89.4C81.6831 89.4667 81.6498 89.55 81.6498 89.65C81.6498 89.75 81.6831 89.8334 81.7498 89.9C81.8165 89.9667 81.8998 90 81.9998 90H85.6498ZM89.9998 93.35C90.0998 93.35 90.1831 93.3167 90.2498 93.25C90.3165 93.1834 90.3498 93.1 90.3498 93C90.3498 92.9 90.3165 92.8167 90.2498 92.75C90.1831 92.6834 90.0998 92.65 89.9998 92.65H81.9998C81.8998 92.65 81.8165 92.6834 81.7498 92.75C81.6831 92.8167 81.6498 92.9 81.6498 93C81.6498 93.1 81.6831 93.1834 81.7498 93.25C81.8165 93.3167 81.8998 93.35 81.9998 93.35H89.9998Z" fill="#8D9DCA"/>
</g>
<rect x="102.086" y="91" width="86.9143" height="4" rx="2" fill="#8D9DCA"/>
<path d="M205 118V118.5H206C206.234 118.5 206.463 118.523 206.684 118.566L206.779 118.076C207.304 118.18 207.792 118.386 208.222 118.674L207.944 119.089C208.326 119.345 208.655 119.674 208.911 120.056L209.325 119.777C209.613 120.207 209.819 120.695 209.923 121.22H209.924L209.434 121.316C209.477 121.537 209.5 121.766 209.5 122V122.9H210V124.7H209.5V126.5H210V128.3H209.5V130.1H210V131.9H209.5V133.7H210V135.5H209.5V137.3H210V139.1H209.5V140C209.5 140.234 209.477 140.463 209.434 140.684L209.923 140.779C209.819 141.304 209.613 141.792 209.325 142.222L208.911 141.944C208.655 142.326 208.326 142.655 207.944 142.911L208.222 143.325C207.792 143.613 207.304 143.819 206.779 143.923L206.684 143.434C206.463 143.477 206.234 143.5 206 143.5H205V144H203V143.5H201V144H199V143.5H197V144H195V143.5H193V144H191V143.5H189V144H187V143.5H185V144H183V143.5H181V144H179V143.5H177V144H175V143.5H173V144H171V143.5H169V144H167V143.5H165V144H163V143.5H161V144H159V143.5H157V144H155V143.5H153V144H151V143.5H149V144H147V143.5H145V144H143V143.5H141V144H139V143.5H137V144H135V143.5H133V144H131V143.5H129V144H127V143.5H125V144H123V143.5H121V144H119V143.5H117V144H115V143.5H113V144H111V143.5H109V144H107V143.5H105V144H103V143.5H101V144H99V143.5H97V144H95V143.5H93V144H91V143.5H89V144H87V143.5H85V144H83V143.5H81V144H79V143.5H77V144H75V143.5H73V144H71V143.5H70C69.7656 143.5 69.5371 143.477 69.3164 143.434L69.2197 143.923C68.6946 143.819 68.2067 143.613 67.7773 143.325L68.0557 142.911C67.6738 142.655 67.3445 142.326 67.0889 141.944L66.6738 142.222C66.3864 141.792 66.1799 141.304 66.0762 140.779L66.5664 140.684C66.5337 140.518 66.5124 140.348 66.5039 140.175L66.5 140V139.1H66V137.3H66.5V135.5H66V133.7H66.5V131.9H66V130.1H66.5V128.3H66V126.5H66.5V124.7H66V122.9H66.5V122C66.5 121.766 66.5228 121.537 66.5664 121.316L66.0762 121.22C66.18 120.695 66.3864 120.207 66.6738 119.777L67.0889 120.056C67.3445 119.674 67.6738 119.345 68.0557 119.089L67.7773 118.674C68.2066 118.386 68.6947 118.18 69.2197 118.076L69.3164 118.566C69.4819 118.534 69.6518 118.512 69.8252 118.504L70 118.5H71V118H73V118.5H75V118H77V118.5H79V118H81V118.5H83V118H85V118.5H87V118H89V118.5H91V118H93V118.5H95V118H97V118.5H99V118H101V118.5H103V118H105V118.5H107V118H109V118.5H111V118H113V118.5H115V118H117V118.5H119V118H121V118.5H123V118H125V118.5H127V118H129V118.5H131V118H133V118.5H135V118H137V118.5H139V118H141V118.5H143V118H145V118.5H147V118H149V118.5H151V118H153V118.5H155V118H157V118.5H159V118H161V118.5H163V118H165V118.5H167V118H169V118.5H171V118H173V118.5H175V118H177V118.5H179V118H181V118.5H183V118H185V118.5H187V118H189V118.5H191V118H193V118.5H195V118H197V118.5H199V118H201V118.5H203V118H205Z" fill="#EBEFF6"/>
<path d="M205 118V118.5H206C206.234 118.5 206.463 118.523 206.684 118.566L206.779 118.076C207.304 118.18 207.792 118.386 208.222 118.674L207.944 119.089C208.326 119.345 208.655 119.674 208.911 120.056L209.325 119.777C209.613 120.207 209.819 120.695 209.923 121.22H209.924L209.434 121.316C209.477 121.537 209.5 121.766 209.5 122V122.9H210V124.7H209.5V126.5H210V128.3H209.5V130.1H210V131.9H209.5V133.7H210V135.5H209.5V137.3H210V139.1H209.5V140C209.5 140.234 209.477 140.463 209.434 140.684L209.923 140.779C209.819 141.304 209.613 141.792 209.325 142.222L208.911 141.944C208.655 142.326 208.326 142.655 207.944 142.911L208.222 143.325C207.792 143.613 207.304 143.819 206.779 143.923L206.684 143.434C206.463 143.477 206.234 143.5 206 143.5H205V144H203V143.5H201V144H199V143.5H197V144H195V143.5H193V144H191V143.5H189V144H187V143.5H185V144H183V143.5H181V144H179V143.5H177V144H175V143.5H173V144H171V143.5H169V144H167V143.5H165V144H163V143.5H161V144H159V143.5H157V144H155V143.5H153V144H151V143.5H149V144H147V143.5H145V144H143V143.5H141V144H139V143.5H137V144H135V143.5H133V144H131V143.5H129V144H127V143.5H125V144H123V143.5H121V144H119V143.5H117V144H115V143.5H113V144H111V143.5H109V144H107V143.5H105V144H103V143.5H101V144H99V143.5H97V144H95V143.5H93V144H91V143.5H89V144H87V143.5H85V144H83V143.5H81V144H79V143.5H77V144H75V143.5H73V144H71V143.5H70C69.7656 143.5 69.5371 143.477 69.3164 143.434L69.2197 143.923C68.6946 143.819 68.2067 143.613 67.7773 143.325L68.0557 142.911C67.6738 142.655 67.3445 142.326 67.0889 141.944L66.6738 142.222C66.3864 141.792 66.1799 141.304 66.0762 140.779L66.5664 140.684C66.5337 140.518 66.5124 140.348 66.5039 140.175L66.5 140V139.1H66V137.3H66.5V135.5H66V133.7H66.5V131.9H66V130.1H66.5V128.3H66V126.5H66.5V124.7H66V122.9H66.5V122C66.5 121.766 66.5228 121.537 66.5664 121.316L66.0762 121.22C66.18 120.695 66.3864 120.207 66.6738 119.777L67.0889 120.056C67.3445 119.674 67.6738 119.345 68.0557 119.089L67.7773 118.674C68.2066 118.386 68.6947 118.18 69.2197 118.076L69.3164 118.566C69.4819 118.534 69.6518 118.512 69.8252 118.504L70 118.5H71V118H73V118.5H75V118H77V118.5H79V118H81V118.5H83V118H85V118.5H87V118H89V118.5H91V118H93V118.5H95V118H97V118.5H99V118H101V118.5H103V118H105V118.5H107V118H109V118.5H111V118H113V118.5H115V118H117V118.5H119V118H121V118.5H123V118H125V118.5H127V118H129V118.5H131V118H133V118.5H135V118H137V118.5H139V118H141V118.5H143V118H145V118.5H147V118H149V118.5H151V118H153V118.5H155V118H157V118.5H159V118H161V118.5H163V118H165V118.5H167V118H169V118.5H171V118H173V118.5H175V118H177V118.5H179V118H181V118.5H183V118H185V118.5H187V118H189V118.5H191V118H193V118.5H195V118H197V118.5H199V118H201V118.5H203V118H205Z" stroke="#8D9DCA" stroke-dasharray="2 2"/>
<mask id="mask1_84_17936" style="mask-type:alpha" maskUnits="userSpaceOnUse" x="130" y="122" width="17" height="17">
<rect x="130.189" y="122.614" width="16" height="16" fill="#D9D9D9"/>
</mask>
<g mask="url(#mask1_84_17936)">
<path d="M137.69 131.114H134.356C134.215 131.114 134.096 131.066 134 130.971C133.904 130.875 133.856 130.756 133.856 130.614C133.856 130.472 133.904 130.354 134 130.258C134.096 130.162 134.215 130.114 134.356 130.114H137.69V126.781C137.69 126.639 137.738 126.521 137.834 126.425C137.93 126.329 138.048 126.281 138.19 126.281C138.332 126.281 138.45 126.329 138.546 126.425C138.642 126.521 138.69 126.639 138.69 126.781V130.114H142.023C142.165 130.114 142.284 130.162 142.379 130.258C142.475 130.354 142.523 130.473 142.523 130.615C142.523 130.756 142.475 130.875 142.379 130.971C142.284 131.066 142.165 131.114 142.023 131.114H138.69V134.448C138.69 134.589 138.642 134.708 138.546 134.804C138.45 134.9 138.331 134.948 138.19 134.948C138.048 134.948 137.929 134.9 137.833 134.804C137.738 134.708 137.69 134.589 137.69 134.448V131.114Z" fill="#303030"/>
</g>
<path d="M123 151.5H263C264.933 151.5 266.5 153.067 266.5 155V173C266.5 174.933 264.933 176.5 263 176.5H123C121.067 176.5 119.5 174.933 119.5 173V155C119.5 153.067 121.067 151.5 123 151.5Z" fill="#ECF5FD"/>
<path d="M123 151.5H263C264.933 151.5 266.5 153.067 266.5 155V173C266.5 174.933 264.933 176.5 263 176.5H123C121.067 176.5 119.5 174.933 119.5 173V155C119.5 153.067 121.067 151.5 123 151.5Z" stroke="#0099FF"/>
<mask id="mask2_84_17936" style="mask-type:alpha" maskUnits="userSpaceOnUse" x="127" y="152" width="24" height="24">
<rect x="127" y="152" width="24" height="24" fill="#D9D9D9"/>
</mask>
<g mask="url(#mask2_84_17936)">
<path d="M132.8 171.7C132.366 171.7 132.008 171.558 131.725 171.275C131.441 170.992 131.3 170.633 131.3 170.2V157.8C131.3 157.367 131.441 157.008 131.725 156.725C132.008 156.442 132.366 156.3 132.8 156.3H141.825C142.025 156.3 142.221 156.342 142.412 156.425C142.604 156.508 142.766 156.617 142.9 156.75L146.25 160.1C146.383 160.233 146.491 160.396 146.575 160.588C146.658 160.779 146.7 160.975 146.7 161.175V170.2C146.7 170.633 146.558 170.992 146.275 171.275C145.991 171.558 145.633 171.7 145.2 171.7H132.8ZM132.8 171H145.2C145.433 171 145.625 170.925 145.775 170.775C145.925 170.625 146 170.433 146 170.2V161H142.75C142.533 161 142.354 160.929 142.212 160.788C142.071 160.646 142 160.467 142 160.25V157H132.8C132.566 157 132.375 157.075 132.225 157.225C132.075 157.375 132 157.567 132 157.8V170.2C132 170.433 132.075 170.625 132.225 170.775C132.375 170.925 132.566 171 132.8 171ZM143 167.7C143.1 167.7 143.183 167.667 143.25 167.6C143.316 167.533 143.35 167.45 143.35 167.35C143.35 167.25 143.316 167.167 143.25 167.1C143.183 167.033 143.1 167 143 167H135C134.9 167 134.816 167.033 134.75 167.1C134.683 167.167 134.65 167.25 134.65 167.35C134.65 167.45 134.683 167.533 134.75 167.6C134.816 167.667 134.9 167.7 135 167.7H143ZM138.65 161C138.75 161 138.833 160.967 138.9 160.9C138.966 160.833 139 160.75 139 160.65C139 160.55 138.966 160.467 138.9 160.4C138.833 160.333 138.75 160.3 138.65 160.3H135C134.9 160.3 134.816 160.333 134.75 160.4C134.683 160.467 134.65 160.55 134.65 160.65C134.65 160.75 134.683 160.833 134.75 160.9C134.816 160.967 134.9 161 135 161H138.65ZM143 164.35C143.1 164.35 143.183 164.317 143.25 164.25C143.316 164.183 143.35 164.1 143.35 164C143.35 163.9 143.316 163.817 143.25 163.75C143.183 163.683 143.1 163.65 143 163.65H135C134.9 163.65 134.816 163.683 134.75 163.75C134.683 163.817 134.65 163.9 134.65 164C134.65 164.1 134.683 164.183 134.75 164.25C134.816 164.317 134.9 164.35 135 164.35H143Z" fill="#0099FF"/>
</g>
<rect x="155" y="162" width="90" height="4" rx="2" fill="#0099FF"/>
</svg>
